  0
SECTION
  2
HEADER
  9
$ACADVER
  1
AC1027
  9
$ACADMAINTVER
 70
105
  9
$DWGCODEPAGE
  3
ANSI_1252
  9
$LASTSAVEDBY
  1
ezdxf
  9
$REQUIREDVERSIONS
160
0
  9
$INSBASE
 10
0.0
 20
0.0
 30
0.0
  9
$EXTMIN
 10
1e+20
 20
1e+20
 30
1e+20
  9
$EXTMAX
 10
-1e+20
 20
-1e+20
 30
-1e+20
  9
$LIMMIN
 10
0.0
 20
0.0
  9
$LIMMAX
 10
420.0
 20
297.0
  9
$ORTHOMODE
 70
0
  9
$REGENMODE
 70
1
  9
$FILLMODE
 70
1
  9
$QTEXTMODE
 70
0
  9
$MIRRTEXT
 70
1
  9
$LTSCALE
 40
1.0
  9
$ATTMODE
 70
1
  9
$TEXTSIZE
 40
2.5
  9
$TRACEWID
 40
1.0
  9
$TEXTSTYLE
  7
Standard
  9
$CLAYER
  8
0
  9
$CELTYPE
  6
ByLayer
  9
$CECOLOR
 62
256
  9
$CELTSCALE
 40
1.0
  9
$DISPSILH
 70
0
  9
$DIMSCALE
 40
1.0
  9
$DIMASZ
 40
2.5
  9
$DIMEXO
 40
0.625
  9
$DIMDLI
 40
3.75
  9
$DIMRND
 40
0.0
  9
$DIMDLE
 40
0.0
  9
$DIMEXE
 40
1.25
  9
$DIMTP
 40
0.0
  9
$DIMTM
 40
0.0
  9
$DIMTXT
 40
2.5
  9
$DIMCEN
 40
2.5
  9
$DIMTSZ
 40
0.0
  9
$DIMTOL
 70
0
  9
$DIMLIM
 70
0
  9
$DIMTIH
 70
0
  9
$DIMTOH
 70
0
  9
$DIMSE1
 70
0
  9
$DIMSE2
 70
0
  9
$DIMTAD
 70
1
  9
$DIMZIN
 70
8
  9
$DIMBLK
  1

  9
$DIMASO
 70
1
  9
$DIMSHO
 70
1
  9
$DIMPOST
  1

  9
$DIMAPOST
  1

  9
$DIMALT
 70
0
  9
$DIMALTD
 70
3
  9
$DIMALTF
 40
0.03937007874
  9
$DIMLFAC
 40
1.0
  9
$DIMTOFL
 70
1
  9
$DIMTVP
 40
0.0
  9
$DIMTIX
 70
0
  9
$DIMSOXD
 70
0
  9
$DIMSAH
 70
0
  9
$DIMBLK1
  1

  9
$DIMBLK2
  1

  9
$DIMSTYLE
  2
ISO-25
  9
$DIMCLRD
 70
0
  9
$DIMCLRE
 70
0
  9
$DIMCLRT
 70
0
  9
$DIMTFAC
 40
1.0
  9
$DIMGAP
 40
0.625
  9
$DIMJUST
 70
0
  9
$DIMSD1
 70
0
  9
$DIMSD2
 70
0
  9
$DIMTOLJ
 70
0
  9
$DIMTZIN
 70
8
  9
$DIMALTZ
 70
0
  9
$DIMALTTZ
 70
0
  9
$DIMUPT
 70
0
  9
$DIMDEC
 70
2
  9
$DIMTDEC
 70
2
  9
$DIMALTU
 70
2
  9
$DIMALTTD
 70
3
  9
$DIMTXSTY
  7
Standard
  9
$DIMAUNIT
 70
0
  9
$DIMADEC
 70
0
  9
$DIMALTRND
 40
0.0
  9
$DIMAZIN
 70
0
  9
$DIMDSEP
 70
44
  9
$DIMATFIT
 70
3
  9
$DIMFRAC
 70
0
  9
$DIMLDRBLK
  1

  9
$DIMLUNIT
 70
2
  9
$DIMLWD
 70
-2
  9
$DIMLWE
 70
-2
  9
$DIMTMOVE
 70
0
  9
$DIMFXL
 40
1.0
  9
$DIMFXLON
 70
0
  9
$DIMJOGANG
 40
0.785398163397
  9
$DIMTFILL
 70
0
  9
$DIMTFILLCLR
 70
0
  9
$DIMARCSYM
 70
0
  9
$DIMLTYPE
  6

  9
$DIMLTEX1
  6

  9
$DIMLTEX2
  6

  9
$DIMTXTDIRECTION
 70
0
  9
$LUNITS
 70
2
  9
$LUPREC
 70
4
  9
$SKETCHINC
 40
1.0
  9
$FILLETRAD
 40
10.0
  9
$AUNITS
 70
0
  9
$AUPREC
 70
2
  9
$MENU
  1
.
  9
$ELEVATION
 40
0.0
  9
$PELEVATION
 40
0.0
  9
$THICKNESS
 40
0.0
  9
$LIMCHECK
 70
0
  9
$CHAMFERA
 40
0.0
  9
$CHAMFERB
 40
0.0
  9
$CHAMFERC
 40
0.0
  9
$CHAMFERD
 40
0.0
  9
$SKPOLY
 70
0
  9
$TDCREATE
 40
2460697.562337963
  9
$TDUCREATE
 40
2458532.153996898
  9
$TDUPDATE
 40
2460697.562337963
  9
$TDUUPDATE
 40
2458532.1544311
  9
$TDINDWG
 40
0.0
  9
$TDUSRTIMER
 40
0.0
  9
$USRTIMER
 70
1
  9
$ANGBASE
 50
0.0
  9
$ANGDIR
 70
0
  9
$PDMODE
 70
0
  9
$PDSIZE
 40
0.0
  9
$PLINEWID
 40
0.0
  9
$SPLFRAME
 70
0
  9
$SPLINETYPE
 70
6
  9
$SPLINESEGS
 70
8
  9
$HANDSEED
  5
F5
  9
$SURFTAB1
 70
6
  9
$SURFTAB2
 70
6
  9
$SURFTYPE
 70
6
  9
$SURFU
 70
6
  9
$SURFV
 70
6
  9
$UCSBASE
  2

  9
$UCSNAME
  2

  9
$UCSORG
 10
0.0
 20
0.0
 30
0.0
  9
$UCSXDIR
 10
1.0
 20
0.0
 30
0.0
  9
$UCSYDIR
 10
0.0
 20
1.0
 30
0.0
  9
$UCSORTHOREF
  2

  9
$UCSORTHOVIEW
 70
0
  9
$UCSORGTOP
 10
0.0
 20
0.0
 30
0.0
  9
$UCSORGBOTTOM
 10
0.0
 20
0.0
 30
0.0
  9
$UCSORGLEFT
 10
0.0
 20
0.0
 30
0.0
  9
$UCSORGRIGHT
 10
0.0
 20
0.0
 30
0.0
  9
$UCSORGFRONT
 10
0.0
 20
0.0
 30
0.0
  9
$UCSORGBACK
 10
0.0
 20
0.0
 30
0.0
  9
$PUCSBASE
  2

  9
$PUCSNAME
  2

  9
$PUCSORG
 10
0.0
 20
0.0
 30
0.0
  9
$PUCSXDIR
 10
1.0
 20
0.0
 30
0.0
  9
$PUCSYDIR
 10
0.0
 20
1.0
 30
0.0
  9
$PUCSORTHOREF
  2

  9
$PUCSORTHOVIEW
 70
0
  9
$PUCSORGTOP
 10
0.0
 20
0.0
 30
0.0
  9
$PUCSORGBOTTOM
 10
0.0
 20
0.0
 30
0.0
  9
$PUCSORGLEFT
 10
0.0
 20
0.0
 30
0.0
  9
$PUCSORGRIGHT
 10
0.0
 20
0.0
 30
0.0
  9
$PUCSORGFRONT
 10
0.0
 20
0.0
 30
0.0
  9
$PUCSORGBACK
 10
0.0
 20
0.0
 30
0.0
  9
$USERI1
 70
0
  9
$USERI2
 70
0
  9
$USERI3
 70
0
  9
$USERI4
 70
0
  9
$USERI5
 70
0
  9
$USERR1
 40
0.0
  9
$USERR2
 40
0.0
  9
$USERR3
 40
0.0
  9
$USERR4
 40
0.0
  9
$USERR5
 40
0.0
  9
$WORLDVIEW
 70
1
  9
$SHADEDGE
 70
3
  9
$SHADEDIF
 70
70
  9
$TILEMODE
 70
1
  9
$MAXACTVP
 70
64
  9
$PINSBASE
 10
0.0
 20
0.0
 30
0.0
  9
$PLIMCHECK
 70
0
  9
$PEXTMIN
 10
1e+20
 20
1e+20
 30
1e+20
  9
$PEXTMAX
 10
-1e+20
 20
-1e+20
 30
-1e+20
  9
$PLIMMIN
 10
0.0
 20
0.0
  9
$PLIMMAX
 10
420.0
 20
297.0
  9
$UNITMODE
 70
0
  9
$VISRETAIN
 70
1
  9
$PLINEGEN
 70
0
  9
$PSLTSCALE
 70
1
  9
$TREEDEPTH
 70
3020
  9
$CMLSTYLE
  2
Standard
  9
$CMLJUST
 70
0
  9
$CMLSCALE
 40
20.0
  9
$PROXYGRAPHICS
 70
1
  9
$MEASUREMENT
 70
1
  9
$CELWEIGHT
370
-1
  9
$ENDCAPS
280
0
  9
$JOINSTYLE
280
0
  9
$LWDISPLAY
290
0
  9
$INSUNITS
 70
6
  9
$HYPERLINKBASE
  1

  9
$STYLESHEET
  1

  9
$XEDIT
290
1
  9
$CEPSNTYPE
380
0
  9
$PSTYLEMODE
290
1
  9
$FINGERPRINTGUID
  2
{D93D17E8-8457-4B18-9053-3DA5503C44D1}
  9
$VERSIONGUID
  2
{D18A2CB6-482B-470B-AD8C-A512EF5C0770}
  9
$EXTNAMES
290
1
  9
$PSVPSCALE
 40
0.0
  9
$OLESTARTUP
290
0
  9
$SORTENTS
280
127
  9
$INDEXCTL
280
0
  9
$HIDETEXT
280
1
  9
$XCLIPFRAME
280
1
  9
$HALOGAP
280
0
  9
$OBSCOLOR
 70
257
  9
$OBSLTYPE
280
0
  9
$INTERSECTIONDISPLAY
280
0
  9
$INTERSECTIONCOLOR
 70
257
  9
$DIMASSOC
280
2
  9
$PROJECTNAME
  1

  9
$CAMERADISPLAY
290
0
  9
$LENSLENGTH
 40
50.0
  9
$CAMERAHEIGHT
 40
0.0
  9
$STEPSPERSEC
 40
24.0
  9
$STEPSIZE
 40
100.0
  9
$3DDWFPREC
 40
2.0
  9
$PSOLWIDTH
 40
0.005
  9
$PSOLHEIGHT
 40
0.08
  9
$LOFTANG1
 40
1.570796326795
  9
$LOFTANG2
 40
1.570796326795
  9
$LOFTMAG1
 40
0.0
  9
$LOFTMAG2
 40
0.0
  9
$LOFTPARAM
 70
7
  9
$LOFTNORMALS
280
1
  9
$LATITUDE
 40
37.795
  9
$LONGITUDE
 40
-122.394
  9
$NORTHDIRECTION
 40
0.0
  9
$TIMEZONE
 70
-8000
  9
$LIGHTGLYPHDISPLAY
280
1
  9
$TILEMODELIGHTSYNCH
280
1
  9
$CMATERIAL
347
20
  9
$SOLIDHIST
280
0
  9
$SHOWHIST
280
1
  9
$DWFFRAME
280
2
  9
$DGNFRAME
280
2
  9
$REALWORLDSCALE
290
1
  9
$INTERFERECOLOR
 62
256
  9
$CSHADOW
280
0
  9
$SHADOWPLANELOCATION
 40
0.0
  0
ENDSEC
  0
SECTION
  2
CLASSES
  0
CLASS
  1
ACDBDICTIONARYWDFLT
  2
AcDbDictionaryWithDefault
  3
ObjectDBX Classes
 90
0
 91
0
280
0
281
0
  0
CLASS
  1
SUN
  2
AcDbSun
  3
SCENEOE
 90
1153
 91
0
280
0
281
0
  0
CLASS
  1
VISUALSTYLE
  2
AcDbVisualStyle
  3
ObjectDBX Classes
 90
4095
 91
0
280
0
281
0
  0
CLASS
  1
MATERIAL
  2
AcDbMaterial
  3
ObjectDBX Classes
 90
1153
 91
0
280
0
281
0
  0
CLASS
  1
SCALE
  2
AcDbScale
  3
ObjectDBX Classes
 90
1153
 91
0
280
0
281
0
  0
CLASS
  1
TABLESTYLE
  2
AcDbTableStyle
  3
ObjectDBX Classes
 90
4095
 91
0
280
0
281
0
  0
CLASS
  1
MLEADERSTYLE
  2
AcDbMLeaderStyle
  3
ACDB_MLEADERSTYLE_CLASS
 90
4095
 91
0
280
0
281
0
  0
CLASS
  1
DICTIONARYVAR
  2
AcDbDictionaryVar
  3
ObjectDBX Classes
 90
0
 91
0
280
0
281
0
  0
CLASS
  1
CELLSTYLEMAP
  2
AcDbCellStyleMap
  3
ObjectDBX Classes
 90
1152
 91
0
280
0
281
0
  0
CLASS
  1
MENTALRAYRENDERSETTINGS
  2
AcDbMentalRayRenderSettings
  3
SCENEOE
 90
1024
 91
0
280
0
281
0
  0
CLASS
  1
ACDBDETAILVIEWSTYLE
  2
AcDbDetailViewStyle
  3
ObjectDBX Classes
 90
1025
 91
0
280
0
281
0
  0
CLASS
  1
ACDBSECTIONVIEWSTYLE
  2
AcDbSectionViewStyle
  3
ObjectDBX Classes
 90
1025
 91
0
280
0
281
0
  0
CLASS
  1
RASTERVARIABLES
  2
AcDbRasterVariables
  3
ISM
 90
0
 91
0
280
0
281
0
  0
CLASS
  1
ACDBPLACEHOLDER
  2
AcDbPlaceHolder
  3
ObjectDBX Classes
 90
0
 91
0
280
0
281
0
  0
CLASS
  1
LAYOUT
  2
AcDbLayout
  3
ObjectDBX Classes
 90
0
 91
0
280
0
281
0
  0
ENDSEC
  0
SECTION
  2
TABLES
  0
TABLE
  2
VPORT
  5
8
330
0
100
AcDbSymbolTable
 70
1
  0
VPORT
  5
23
330
8
100
AcDbSymbolTableRecord
100
AcDbViewportTableRecord
  2
*Active
 70
0
 10
0.0
 20
0.0
 11
1.0
 21
1.0
 12
0.0
 22
0.0
 13
0.0
 23
0.0
 14
0.5
 24
0.5
 15
0.5
 25
0.5
 16
0.0
 26
0.0
 36
1.0
 17
0.0
 27
0.0
 37
0.0
 40
1000.0
 41
1.34
 42
50.0
 43
0.0
 44
0.0
 50
0.0
 51
0.0
 71
0
 72
1000
 73
1
 74
3
 75
0
 76
0
 77
0
 78
0
281
0
 65
0
146
0.0
  0
ENDTAB
  0
TABLE
  2
LTYPE
  5
2
330
0
100
AcDbSymbolTable
 70
3
  0
LTYPE
  5
24
330
2
100
AcDbSymbolTableRecord
100
AcDbLinetypeTableRecord
  2
ByBlock
 70
0
  3

 72
65
 73
0
 40
0.0
  0
LTYPE
  5
25
330
2
100
AcDbSymbolTableRecord
100
AcDbLinetypeTableRecord
  2
ByLayer
 70
0
  3

 72
65
 73
0
 40
0.0
  0
LTYPE
  5
26
330
2
100
AcDbSymbolTableRecord
100
AcDbLinetypeTableRecord
  2
Continuous
 70
0
  3

 72
65
 73
0
 40
0.0
  0
ENDTAB
  0
TABLE
  2
LAYER
  5
1
330
0
100
AcDbSymbolTable
 70
2
  0
LAYER
  5
27
330
1
100
AcDbSymbolTableRecord
100
AcDbLayerTableRecord
  2
0
 70
0
 62
7
  6
Continuous
370
-3
390
13
347
21
  0
LAYER
  5
28
330
1
100
AcDbSymbolTableRecord
100
AcDbLayerTableRecord
  2
Defpoints
 70
0
 62
7
  6
Continuous
290
0
370
-3
390
13
347
21
  0
ENDTAB
  0
TABLE
  2
STYLE
  5
5
330
0
100
AcDbSymbolTable
 70
1
  0
STYLE
  5
29
330
5
100
AcDbSymbolTableRecord
100
AcDbTextStyleTableRecord
  2
Standard
 70
0
 40
0.0
 41
1.0
 50
0.0
 71
0
 42
2.5
  3
txt
  4

  0
ENDTAB
  0
TABLE
  2
VIEW
  5
7
330
0
100
AcDbSymbolTable
 70
0
  0
ENDTAB
  0
TABLE
  2
UCS
  5
6
330
0
100
AcDbSymbolTable
 70
0
  0
ENDTAB
  0
TABLE
  2
APPID
  5
3
330
0
100
AcDbSymbolTable
 70
3
  0
APPID
  5
2A
330
3
100
AcDbSymbolTableRecord
100
AcDbRegAppTableRecord
  2
ACAD
 70
0
  0
APPID
  5
F2
330
3
100
AcDbSymbolTableRecord
100
AcDbRegAppTableRecord
  2
HATCHBACKGROUNDCOLOR
 70
0
  0
APPID
  5
F3
330
3
100
AcDbSymbolTableRecord
100
AcDbRegAppTableRecord
  2
EZDXF
 70
0
  0
ENDTAB
  0
TABLE
  2
DIMSTYLE
  5
4
330
0
100
AcDbSymbolTable
 70
1
100
AcDbDimStyleTable
  0
DIMSTYLE
105
2B
330
4
100
AcDbSymbolTableRecord
100
AcDbDimStyleTableRecord
  2
Standard
 70
0
 40
1.0
 41
2.5
 42
0.625
 43
3.75
 44
1.25
 45
0.0
 46
0.0
 47
0.0
 48
0.0
 49
2.5
140
2.5
141
2.5
142
0.0
143
0.03937007874
144
1.0
145
0.0
146
1.0
147
0.625
148
0.0
 69
0
 70
0
 71
0
 72
0
 73
0
 74
0
 75
0
 76
0
 77
1
 78
8
 79
3
170
0
171
3
172
1
173
0
174
0
175
0
176
0
177
0
178
0
179
2
271
2
272
2
273
2
274
3
275
0
276
0
277
2
278
44
279
0
280
0
281
0
282
0
283
0
284
8
285
0
286
0
288
0
289
3
290
0
371
-2
372
-2
  0
ENDTAB
  0
TABLE
  2
BLOCK_RECORD
  5
9
330
0
100
AcDbSymbolTable
 70
2
  0
BLOCK_RECORD
  5
17
330
9
100
AcDbSymbolTableRecord
100
AcDbBlockTableRecord
  2
*Model_Space
340
1A
 70
0
280
1
281
0
  0
BLOCK_RECORD
  5
1B
330
9
100
AcDbSymbolTableRecord
100
AcDbBlockTableRecord
  2
*Paper_Space
340
1E
 70
0
280
1
281
0
  0
ENDTAB
  0
ENDSEC
  0
SECTION
  2
BLOCKS
  0
BLOCK
  5
18
330
17
100
AcDbEntity
  8
0
100
AcDbBlockBegin
  2
*Model_Space
 70
0
 10
0.0
 20
0.0
 30
0.0
  3
*Model_Space
  1

  0
ENDBLK
  5
19
330
17
100
AcDbEntity
  8
0
100
AcDbBlockEnd
  0
BLOCK
  5
1C
330
1B
100
AcDbEntity
  8
0
100
AcDbBlockBegin
  2
*Paper_Space
 70
0
 10
0.0
 20
0.0
 30
0.0
  3
*Paper_Space
  1

  0
ENDBLK
  5
1D
330
1B
100
AcDbEntity
  8
0
100
AcDbBlockEnd
  0
ENDSEC
  0
SECTION
  2
ENTITIES
  0
POLYLINE
  5
2F
330
17
100
AcDbEntity
  8
contorno2
100
AcDb3dPolyline
 66
1
 10
0.0
 20
0.0
 30
0.0
 70
8
  0
VERTEX
  5
31
330
17
100
AcDbEntity
  8
contorno2
100
AcDbVertex
100
AcDb3dPolylineVertex
 10
152.0
 20
108.0
 30
0.0
 70
32
  0
VERTEX
  5
32
330
17
100
AcDbEntity
  8
contorno2
100
AcDbVertex
100
AcDb3dPolylineVertex
 10
151.963484355948
 20
163.999988094711
 30
0.0
 70
32
  0
VERTEX
  5
33
330
17
100
AcDbEntity
  8
contorno2
100
AcDbVertex
100
AcDb3dPolylineVertex
 10
1464.703990590243
 20
432.909570095289
 30
300.0
 70
32
  0
VERTEX
  5
34
330
17
100
AcDbEntity
  8
contorno2
100
AcDbVertex
100
AcDb3dPolylineVertex
 10
1465.332797250371
 20
-227.090130360843
 30
300.0
 70
32
  0
VERTEX
  5
35
330
17
100
AcDbEntity
  8
contorno2
100
AcDbVertex
100
AcDb3dPolylineVertex
 10
152.0
 20
108.0
 30
0.0
 70
32
  0
SEQEND
  5
30
330
2F
100
AcDbEntity
  8
contorno2
  0
POLYLINE
  5
36
330
17
100
AcDbEntity
  8
contorno1
100
AcDb3dPolyline
 66
1
 10
0.0
 20
0.0
 30
0.0
 70
8
  0
VERTEX
  5
38
330
17
100
AcDbEntity
  8
contorno1
100
AcDbVertex
100
AcDb3dPolylineVertex
 10
620.0
 20
-380.0
 30
0.0
 70
32
  0
VERTEX
  5
39
330
17
100
AcDbEntity
  8
contorno1
100
AcDbVertex
100
AcDb3dPolylineVertex
 10
719.999992313189
 20
-380.039209210517
 30
0.0
 70
32
  0
VERTEX
  5
3A
330
17
100
AcDbEntity
  8
contorno1
100
AcDbVertex
100
AcDb3dPolylineVertex
 10
987.000618009331
 20
769.356573745846
 30
300.0
 70
32
  0
VERTEX
  5
3B
330
17
100
AcDbEntity
  8
contorno1
100
AcDbVertex
100
AcDb3dPolylineVertex
 10
247.006700673462
 20
766.356189451209
 30
300.0
 70
32
  0
VERTEX
  5
3C
330
17
100
AcDbEntity
  8
contorno1
100
AcDbVertex
100
AcDb3dPolylineVertex
 10
620.0
 20
-380.0
 30
0.0
 70
32
  0
SEQEND
  5
37
330
36
100
AcDbEntity
  8
contorno1
  0
POLYLINE
  5
3D
330
17
100
AcDbEntity
  8
contorno3
100
AcDb3dPolyline
 66
1
 10
0.0
 20
0.0
 30
0.0
 70
8
  0
VERTEX
  5
3F
330
17
100
AcDbEntity
  8
contorno3
100
AcDbVertex
100
AcDb3dPolylineVertex
 10
1344.250109491018
 20
47.124307437336
 30
400.0
 70
32
  0
VERTEX
  5
40
330
17
100
AcDbEntity
  8
contorno3
100
AcDbVertex
100
AcDb3dPolylineVertex
 10
1241.185024292013
 20
-7.174279033556
 30
400.0
 70
32
  0
VERTEX
  5
41
330
17
100
AcDbEntity
  8
contorno3
100
AcDbVertex
100
AcDb3dPolylineVertex
 10
1165.454026402438
 20
41.455094380558
 30
400.0
 70
32
  0
VERTEX
  5
42
330
17
100
AcDbEntity
  8
contorno3
100
AcDbVertex
100
AcDb3dPolylineVertex
 10
1126.382170755475
 20
144.282085469001
 30
400.0
 70
32
  0
VERTEX
  5
43
330
17
100
AcDbEntity
  8
contorno3
100
AcDbVertex
100
AcDb3dPolylineVertex
 10
1170.198965463551
 20
234.17139796782
 30
400.0
 70
32
  0
VERTEX
  5
44
330
17
100
AcDbEntity
  8
contorno3
100
AcDbVertex
100
AcDb3dPolylineVertex
 10
1314.971757891064
 20
255.71964284372
 30
400.0
 70
32
  0
VERTEX
  5
45
330
17
100
AcDbEntity
  8
contorno3
100
AcDbVertex
100
AcDb3dPolylineVertex
 10
1406.519108990861
 20
169.160806834184
 30
400.0
 70
32
  0
VERTEX
  5
46
330
17
100
AcDbEntity
  8
contorno3
100
AcDbVertex
100
AcDb3dPolylineVertex
 10
1344.250109491018
 20
47.124307437336
 30
400.0
 70
32
  0
SEQEND
  5
3E
330
3D
100
AcDbEntity
  8
contorno3
  0
POLYLINE
  5
47
330
17
100
AcDbEntity
  8
contorno3
100
AcDb3dPolyline
 66
1
 10
0.0
 20
0.0
 30
0.0
 70
8
  0
VERTEX
  5
49
330
17
100
AcDbEntity
  8
contorno3
100
AcDbVertex
100
AcDb3dPolylineVertex
 10
1252.0
 20
116.0
 30
0.0
 70
32
  0
VERTEX
  5
4A
330
17
100
AcDbEntity
  8
contorno3
100
AcDbVertex
100
AcDb3dPolylineVertex
 10
1247.911905164653
 20
120.391751429351
 30
0.0
 70
32
  0
VERTEX
  5
4B
330
17
100
AcDbEntity
  8
contorno3
100
AcDbVertex
100
AcDb3dPolylineVertex
 10
1243.519579303694
 20
129.375485259511
 30
0.0
 70
32
  0
VERTEX
  5
4C
330
17
100
AcDbEntity
  8
contorno3
100
AcDbVertex
100
AcDb3dPolylineVertex
 10
1241.75064089706
 20
139.217784630772
 30
0.0
 70
32
  0
VERTEX
  5
4D
330
17
100
AcDbEntity
  8
contorno3
100
AcDbVertex
100
AcDb3dPolylineVertex
 10
1244.33809938096
 20
148.877238993939
 30
0.0
 70
32
  0
VERTEX
  5
4E
330
17
100
AcDbEntity
  8
contorno3
100
AcDbVertex
100
AcDb3dPolylineVertex
 10
1249.32977925623
 20
155.128889337874
 30
0.0
 70
32
  0
VERTEX
  5
4F
330
17
100
AcDbEntity
  8
contorno3
100
AcDbVertex
100
AcDb3dPolylineVertex
 10
1259.615352387931
 20
161.310069269928
 30
0.0
 70
32
  0
VERTEX
  5
50
330
17
100
AcDbEntity
  8
contorno3
100
AcDbVertex
100
AcDb3dPolylineVertex
 10
1273.444277117786
 20
163.492004378036
 30
0.0
 70
32
  0
VERTEX
  5
51
330
17
100
AcDbEntity
  8
contorno3
100
AcDbVertex
100
AcDb3dPolylineVertex
 10
1281.125129561992
 20
161.25492911548
 30
0.0
 70
32
  0
VERTEX
  5
52
330
17
100
AcDbEntity
  8
contorno3
100
AcDbVertex
100
AcDb3dPolylineVertex
 10
1288.361884247824
 20
154.353524793381
 30
0.0
 70
32
  0
VERTEX
  5
53
330
17
100
AcDbEntity
  8
contorno3
100
AcDbVertex
100
AcDb3dPolylineVertex
 10
1291.625509404943
 20
144.901077976085
 30
0.0
 70
32
  0
VERTEX
  5
54
330
17
100
AcDbEntity
  8
contorno3
100
AcDbVertex
100
AcDb3dPolylineVertex
 10
1295.16906693105
 20
133.436209897508
 30
0.0
 70
32
  0
VERTEX
  5
55
330
17
100
AcDbEntity
  8
contorno3
100
AcDbVertex
100
AcDb3dPolylineVertex
 10
1292.361707907856
 20
128.133499711679
 30
0.0
 70
32
  0
VERTEX
  5
56
330
17
100
AcDbEntity
  8
contorno3
100
AcDbVertex
100
AcDb3dPolylineVertex
 10
1286.740951217421
 20
122.440776793169
 30
0.0
 70
32
  0
VERTEX
  5
57
330
17
100
AcDbEntity
  8
contorno3
100
AcDbVertex
100
AcDb3dPolylineVertex
 10
1282.133599219041
 20
115.900722698361
 30
0.0
 70
32
  0
VERTEX
  5
58
330
17
100
AcDbEntity
  8
contorno3
100
AcDbVertex
100
AcDb3dPolylineVertex
 10
1274.178059967285
 20
115.058466672101
 30
0.0
 70
32
  0
VERTEX
  5
59
330
17
100
AcDbEntity
  8
contorno3
100
AcDbVertex
100
AcDb3dPolylineVertex
 10
1266.279084708975
 20
113.791111209492
 30
0.0
 70
32
  0
VERTEX
  5
5A
330
17
100
AcDbEntity
  8
contorno3
100
AcDbVertex
100
AcDb3dPolylineVertex
 10
1252.0
 20
116.0
 30
0.0
 70
32
  0
SEQEND
  5
48
330
47
100
AcDbEntity
  8
contorno3
  0
POLYLINE
  5
5B
330
17
100
AcDbEntity
  8
INTERSECTIONS
100
AcDb3dPolyline
 66
1
 10
0.0
 20
0.0
 30
0.0
 70
8
  0
VERTEX
  5
5D
330
17
100
AcDbEntity
  8
INTERSECTIONS
100
AcDbVertex
100
AcDb3dPolylineVertex
 10
584.3090805300152
 20
-2.301445645968073
 30
98.75083923339844
 70
32
  0
VERTEX
  5
5E
330
17
100
AcDbEntity
  8
INTERSECTIONS
100
AcDbVertex
100
AcDb3dPolylineVertex
 10
801.587890625
 20
188.6890869140625
 30
148.4367218017578
 70
32
  0
SEQEND
  5
5C
330
5B
100
AcDbEntity
  8
INTERSECTIONS
  0
POLYLINE
  5
5F
330
17
100
AcDbEntity
  8
INTERSECTIONS
100
AcDb3dPolyline
 66
1
 10
0.0
 20
0.0
 30
0.0
 70
8
  0
VERTEX
  5
61
330
17
100
AcDbEntity
  8
INTERSECTIONS
100
AcDbVertex
100
AcDb3dPolylineVertex
 10
801.587890625
 20
188.6890869140625
 30
148.4367218017578
 70
32
  0
VERTEX
  5
62
330
17
100
AcDbEntity
  8
INTERSECTIONS
100
AcDbVertex
100
AcDb3dPolylineVertex
 10
865.0182892298799
 20
244.24179572334776
 30
162.9415283203125
 70
32
  0
SEQEND
  5
60
330
5F
100
AcDbEntity
  8
INTERSECTIONS
  0
POLYLINE
  5
63
330
17
100
AcDbEntity
  8
INTERSECTIONS
100
AcDb3dPolyline
 66
1
 10
0.0
 20
0.0
 30
0.0
 70
8
  0
VERTEX
  5
65
330
17
100
AcDbEntity
  8
INTERSECTIONS
100
AcDbVertex
100
AcDb3dPolylineVertex
 10
1371.67333984375
 20
161.8031463623047
 30
278.6851501464844
 70
32
  0
VERTEX
  5
66
330
17
100
AcDbEntity
  8
INTERSECTIONS
100
AcDbVertex
100
AcDb3dPolylineVertex
 10
1372.82080078125
 20
158.34934997558594
 30
278.94659423828125
 70
32
  0
SEQEND
  5
64
330
63
100
AcDbEntity
  8
INTERSECTIONS
  0
POLYLINE
  5
67
330
17
100
AcDbEntity
  8
INTERSECTIONS
100
AcDb3dPolyline
 66
1
 10
0.0
 20
0.0
 30
0.0
 70
8
  0
VERTEX
  5
69
330
17
100
AcDbEntity
  8
INTERSECTIONS
100
AcDbVertex
100
AcDb3dPolylineVertex
 10
1328.1417236328125
 20
75.45183563232422
 30
268.72015380859375
 70
32
  0
VERTEX
  5
6A
330
17
100
AcDbEntity
  8
INTERSECTIONS
100
AcDbVertex
100
AcDb3dPolylineVertex
 10
1327.192138671875
 20
73.75550842285156
 30
268.5028381347656
 70
32
  0
SEQEND
  5
68
330
67
100
AcDbEntity
  8
INTERSECTIONS
  0
POLYLINE
  5
6B
330
17
100
AcDbEntity
  8
INTERSECTIONS
100
AcDb3dPolyline
 66
1
 10
0.0
 20
0.0
 30
0.0
 70
8
  0
VERTEX
  5
6D
330
17
100
AcDbEntity
  8
INTERSECTIONS
100
AcDbVertex
100
AcDb3dPolylineVertex
 10
1320.9649658203125
 20
69.69896697998047
 30
267.07916259765625
 70
32
  0
VERTEX
  5
6E
330
17
100
AcDbEntity
  8
INTERSECTIONS
100
AcDbVertex
100
AcDb3dPolylineVertex
 10
1318.2177734375
 20
69.38245391845703
 30
266.451416015625
 70
32
  0
SEQEND
  5
6C
330
6B
100
AcDbEntity
  8
INTERSECTIONS
  0
POLYLINE
  5
6F
330
17
100
AcDbEntity
  8
INTERSECTIONS
100
AcDb3dPolyline
 66
1
 10
0.0
 20
0.0
 30
0.0
 70
8
  0
VERTEX
  5
71
330
17
100
AcDbEntity
  8
INTERSECTIONS
100
AcDbVertex
100
AcDb3dPolylineVertex
 10
1320.9649658203125
 20
69.69896697998047
 30
267.07916259765625
 70
32
  0
VERTEX
  5
72
330
17
100
AcDbEntity
  8
INTERSECTIONS
100
AcDbVertex
100
AcDb3dPolylineVertex
 10
1323.7059326171875
 20
69.87117004394531
 30
267.7054443359375
 70
32
  0
SEQEND
  5
70
330
6F
100
AcDbEntity
  8
INTERSECTIONS
  0
POLYLINE
  5
73
330
17
100
AcDbEntity
  8
INTERSECTIONS
100
AcDb3dPolyline
 66
1
 10
0.0
 20
0.0
 30
0.0
 70
8
  0
VERTEX
  5
75
330
17
100
AcDbEntity
  8
INTERSECTIONS
100
AcDbVertex
100
AcDb3dPolylineVertex
 10
1327.192138671875
 20
73.75550842285156
 30
268.5028381347656
 70
32
  0
VERTEX
  5
76
330
17
100
AcDbEntity
  8
INTERSECTIONS
100
AcDbVertex
100
AcDb3dPolylineVertex
 10
1323.7059326171875
 20
69.87117004394531
 30
267.7054443359375
 70
32
  0
SEQEND
  5
74
330
73
100
AcDbEntity
  8
INTERSECTIONS
  0
POLYLINE
  5
77
330
17
100
AcDbEntity
  8
INTERSECTIONS
100
AcDb3dPolyline
 66
1
 10
0.0
 20
0.0
 30
0.0
 70
8
  0
VERTEX
  5
79
330
17
100
AcDbEntity
  8
INTERSECTIONS
100
AcDbVertex
100
AcDb3dPolylineVertex
 10
1371.67333984375
 20
161.8031463623047
 30
278.6851501464844
 70
32
  0
VERTEX
  5
7A
330
17
100
AcDbEntity
  8
INTERSECTIONS
100
AcDbVertex
100
AcDb3dPolylineVertex
 10
1370.612060546875
 20
164.66099548339844
 30
278.44329833984375
 70
32
  0
SEQEND
  5
78
330
77
100
AcDbEntity
  8
INTERSECTIONS
  0
POLYLINE
  5
7B
330
17
100
AcDbEntity
  8
INTERSECTIONS
100
AcDb3dPolyline
 66
1
 10
0.0
 20
0.0
 30
0.0
 70
8
  0
VERTEX
  5
7D
330
17
100
AcDbEntity
  8
INTERSECTIONS
100
AcDbVertex
100
AcDb3dPolylineVertex
 10
1295.78515625
 20
222.9971466064453
 30
261.359375
 70
32
  0
VERTEX
  5
7E
330
17
100
AcDbEntity
  8
INTERSECTIONS
100
AcDbVertex
100
AcDb3dPolylineVertex
 10
1300.6947021484375
 20
224.01210021972656
 30
262.4813537597656
 70
32
  0
SEQEND
  5
7C
330
7B
100
AcDbEntity
  8
INTERSECTIONS
  0
POLYLINE
  5
7F
330
17
100
AcDbEntity
  8
INTERSECTIONS
100
AcDb3dPolyline
 66
1
 10
0.0
 20
0.0
 30
0.0
 70
8
  0
VERTEX
  5
81
330
17
100
AcDbEntity
  8
INTERSECTIONS
100
AcDbVertex
100
AcDb3dPolylineVertex
 10
1303.387451171875
 20
223.3882598876953
 30
263.0964660644531
 70
32
  0
VERTEX
  5
82
330
17
100
AcDbEntity
  8
INTERSECTIONS
100
AcDbVertex
100
AcDb3dPolylineVertex
 10
1305.9024658203125
 20
221.17169189453125
 30
263.6706237792969
 70
32
  0
SEQEND
  5
80
330
7F
100
AcDbEntity
  8
INTERSECTIONS
  0
POLYLINE
  5
83
330
17
100
AcDbEntity
  8
INTERSECTIONS
100
AcDb3dPolyline
 66
1
 10
0.0
 20
0.0
 30
0.0
 70
8
  0
VERTEX
  5
85
330
17
100
AcDbEntity
  8
INTERSECTIONS
100
AcDbVertex
100
AcDb3dPolylineVertex
 10
1300.6947021484375
 20
224.01210021972656
 30
262.4813537597656
 70
32
  0
VERTEX
  5
86
330
17
100
AcDbEntity
  8
INTERSECTIONS
100
AcDbVertex
100
AcDb3dPolylineVertex
 10
1303.387451171875
 20
223.3882598876953
 30
263.0964660644531
 70
32
  0
SEQEND
  5
84
330
83
100
AcDbEntity
  8
INTERSECTIONS
  0
POLYLINE
  5
87
330
17
100
AcDbEntity
  8
INTERSECTIONS
100
AcDb3dPolyline
 66
1
 10
0.0
 20
0.0
 30
0.0
 70
8
  0
VERTEX
  5
89
330
17
100
AcDbEntity
  8
INTERSECTIONS
100
AcDbVertex
100
AcDb3dPolylineVertex
 10
1198.617431640625
 20
73.2022933959961
 30
239.12570190429688
 70
32
  0
VERTEX
  5
8A
330
17
100
AcDbEntity
  8
INTERSECTIONS
100
AcDbVertex
100
AcDb3dPolylineVertex
 10
1196.9261474609375
 20
76.90018463134766
 30
238.74008178710938
 70
32
  0
SEQEND
  5
88
330
87
100
AcDbEntity
  8
INTERSECTIONS
  0
POLYLINE
  5
8B
330
17
100
AcDbEntity
  8
INTERSECTIONS
100
AcDb3dPolyline
 66
1
 10
0.0
 20
0.0
 30
0.0
 70
8
  0
VERTEX
  5
8D
330
17
100
AcDbEntity
  8
INTERSECTIONS
100
AcDbVertex
100
AcDb3dPolylineVertex
 10
1250.5338134765625
 20
37.89138412475586
 30
250.97998046875
 70
32
  0
VERTEX
  5
8E
330
17
100
AcDbEntity
  8
INTERSECTIONS
100
AcDbVertex
100
AcDb3dPolylineVertex
 10
1245.246826171875
 20
39.08620834350586
 30
249.77224731445312
 70
32
  0
SEQEND
  5
8C
330
8B
100
AcDbEntity
  8
INTERSECTIONS
  0
POLYLINE
  5
8F
330
17
100
AcDbEntity
  8
INTERSECTIONS
100
AcDb3dPolyline
 66
1
 10
0.0
 20
0.0
 30
0.0
 70
8
  0
VERTEX
  5
91
330
17
100
AcDbEntity
  8
INTERSECTIONS
100
AcDbVertex
100
AcDb3dPolylineVertex
 10
1198.617431640625
 20
73.2022933959961
 30
239.12570190429688
 70
32
  0
VERTEX
  5
92
330
17
100
AcDbEntity
  8
INTERSECTIONS
100
AcDbVertex
100
AcDb3dPolylineVertex
 10
1200.1842041015625
 20
71.36935424804688
 30
239.4832763671875
 70
32
  0
SEQEND
  5
90
330
8F
100
AcDbEntity
  8
INTERSECTIONS
  0
POLYLINE
  5
93
330
17
100
AcDbEntity
  8
INTERSECTIONS
100
AcDb3dPolyline
 66
1
 10
0.0
 20
0.0
 30
0.0
 70
8
  0
VERTEX
  5
95
330
17
100
AcDbEntity
  8
INTERSECTIONS
100
AcDbVertex
100
AcDb3dPolylineVertex
 10
1201.87158203125
 20
202.53411865234375
 30
239.89736938476562
 70
32
  0
VERTEX
  5
96
330
17
100
AcDbEntity
  8
INTERSECTIONS
100
AcDbVertex
100
AcDb3dPolylineVertex
 10
1205.788330078125
 20
205.17127990722656
 30
240.7928466796875
 70
32
  0
SEQEND
  5
94
330
93
100
AcDbEntity
  8
INTERSECTIONS
  0
POLYLINE
  5
97
330
17
100
AcDbEntity
  8
INTERSECTIONS
100
AcDb3dPolyline
 66
1
 10
0.0
 20
0.0
 30
0.0
 70
8
  0
VERTEX
  5
99
330
17
100
AcDbEntity
  8
INTERSECTIONS
100
AcDbVertex
100
AcDb3dPolylineVertex
 10
1201.87158203125
 20
202.53411865234375
 30
239.89736938476562
 70
32
  0
VERTEX
  5
9A
330
17
100
AcDbEntity
  8
INTERSECTIONS
100
AcDbVertex
100
AcDb3dPolylineVertex
 10
1199.9549560546875
 20
199.9383544921875
 30
239.45887756347656
 70
32
  0
SEQEND
  5
98
330
97
100
AcDbEntity
  8
INTERSECTIONS
  0
POLYLINE
  5
9B
330
17
100
AcDbEntity
  8
INTERSECTIONS
100
AcDb3dPolyline
 66
1
 10
0.0
 20
0.0
 30
0.0
 70
8
  0
VERTEX
  5
9D
330
17
100
AcDbEntity
  8
INTERSECTIONS
100
AcDbVertex
100
AcDb3dPolylineVertex
 10
1174.375
 20
142.17535400390625
 30
233.60174560546875
 70
32
  0
VERTEX
  5
9E
330
17
100
AcDbEntity
  8
INTERSECTIONS
100
AcDbVertex
100
AcDb3dPolylineVertex
 10
1175.3831787109375
 20
146.1909942626953
 30
233.83297729492188
 70
32
  0
SEQEND
  5
9C
330
9B
100
AcDbEntity
  8
INTERSECTIONS
  0
POLYLINE
  5
9F
330
17
100
AcDbEntity
  8
INTERSECTIONS
100
AcDb3dPolyline
 66
1
 10
0.0
 20
0.0
 30
0.0
 70
8
  0
VERTEX
  5
A1
330
17
100
AcDbEntity
  8
INTERSECTIONS
100
AcDbVertex
100
AcDb3dPolylineVertex
 10
1174.375
 20
142.17535400390625
 30
233.60174560546875
 70
32
  0
VERTEX
  5
A2
330
17
100
AcDbEntity
  8
INTERSECTIONS
100
AcDbVertex
100
AcDb3dPolylineVertex
 10
1175.06494140625
 20
138.08685302734375
 30
233.7584991455078
 70
32
  0
SEQEND
  5
A0
330
9F
100
AcDbEntity
  8
INTERSECTIONS
  0
POLYLINE
  5
A3
330
17
100
AcDbEntity
  8
INTERSECTIONS
100
AcDb3dPolyline
 66
1
 10
0.0
 20
0.0
 30
0.0
 70
8
  0
VERTEX
  5
A5
330
17
100
AcDbEntity
  8
INTERSECTIONS
100
AcDbVertex
100
AcDb3dPolylineVertex
 10
1370.612060546875
 20
164.66099548339844
 30
278.44329833984375
 70
32
  0
VERTEX
  5
A6
330
17
100
AcDbEntity
  8
INTERSECTIONS
100
AcDbVertex
100
AcDb3dPolylineVertex
 10
1305.9024658203125
 20
221.17169189453125
 30
263.6706237792969
 70
32
  0
SEQEND
  5
A4
330
A3
100
AcDbEntity
  8
INTERSECTIONS
  0
POLYLINE
  5
A7
330
17
100
AcDbEntity
  8
INTERSECTIONS
100
AcDb3dPolyline
 66
1
 10
0.0
 20
0.0
 30
0.0
 70
8
  0
VERTEX
  5
A9
330
17
100
AcDbEntity
  8
INTERSECTIONS
100
AcDbVertex
100
AcDb3dPolylineVertex
 10
1295.78515625
 20
222.9971466064453
 30
261.359375
 70
32
  0
VERTEX
  5
AA
330
17
100
AcDbEntity
  8
INTERSECTIONS
100
AcDbVertex
100
AcDb3dPolylineVertex
 10
1205.788330078125
 20
205.17127990722656
 30
240.7928466796875
 70
32
  0
SEQEND
  5
A8
330
A7
100
AcDbEntity
  8
INTERSECTIONS
  0
POLYLINE
  5
AB
330
17
100
AcDbEntity
  8
INTERSECTIONS
100
AcDb3dPolyline
 66
1
 10
0.0
 20
0.0
 30
0.0
 70
8
  0
VERTEX
  5
AD
330
17
100
AcDbEntity
  8
INTERSECTIONS
100
AcDbVertex
100
AcDb3dPolylineVertex
 10
1372.82080078125
 20
158.34934997558594
 30
278.94659423828125
 70
32
  0
VERTEX
  5
AE
330
17
100
AcDbEntity
  8
INTERSECTIONS
100
AcDbVertex
100
AcDb3dPolylineVertex
 10
1328.1417236328125
 20
75.45183563232422
 30
268.72015380859375
 70
32
  0
SEQEND
  5
AC
330
AB
100
AcDbEntity
  8
INTERSECTIONS
  0
POLYLINE
  5
AF
330
17
100
AcDbEntity
  8
INTERSECTIONS
100
AcDb3dPolyline
 66
1
 10
0.0
 20
0.0
 30
0.0
 70
8
  0
VERTEX
  5
B1
330
17
100
AcDbEntity
  8
INTERSECTIONS
100
AcDbVertex
100
AcDb3dPolylineVertex
 10
1318.2177734375
 20
69.38245391845703
 30
266.451416015625
 70
32
  0
VERTEX
  5
B2
330
17
100
AcDbEntity
  8
INTERSECTIONS
100
AcDbVertex
100
AcDb3dPolylineVertex
 10
1250.5338134765625
 20
37.89138412475586
 30
250.97998046875
 70
32
  0
SEQEND
  5
B0
330
AF
100
AcDbEntity
  8
INTERSECTIONS
  0
POLYLINE
  5
B3
330
17
100
AcDbEntity
  8
INTERSECTIONS
100
AcDb3dPolyline
 66
1
 10
0.0
 20
0.0
 30
0.0
 70
8
  0
VERTEX
  5
B5
330
17
100
AcDbEntity
  8
INTERSECTIONS
100
AcDbVertex
100
AcDb3dPolylineVertex
 10
1199.9549560546875
 20
199.9383544921875
 30
239.45887756347656
 70
32
  0
VERTEX
  5
B6
330
17
100
AcDbEntity
  8
INTERSECTIONS
100
AcDbVertex
100
AcDb3dPolylineVertex
 10
1175.3831787109375
 20
146.1909942626953
 30
233.83297729492188
 70
32
  0
SEQEND
  5
B4
330
B3
100
AcDbEntity
  8
INTERSECTIONS
  0
POLYLINE
  5
B7
330
17
100
AcDbEntity
  8
INTERSECTIONS
100
AcDb3dPolyline
 66
1
 10
0.0
 20
0.0
 30
0.0
 70
8
  0
VERTEX
  5
B9
330
17
100
AcDbEntity
  8
INTERSECTIONS
100
AcDbVertex
100
AcDb3dPolylineVertex
 10
1196.9261474609375
 20
76.90018463134766
 30
238.74008178710938
 70
32
  0
VERTEX
  5
BA
330
17
100
AcDbEntity
  8
INTERSECTIONS
100
AcDbVertex
100
AcDb3dPolylineVertex
 10
1175.06494140625
 20
138.08685302734375
 30
233.7584991455078
 70
32
  0
SEQEND
  5
B8
330
B7
100
AcDbEntity
  8
INTERSECTIONS
  0
POLYLINE
  5
BB
330
17
100
AcDbEntity
  8
INTERSECTIONS
100
AcDb3dPolyline
 66
1
 10
0.0
 20
0.0
 30
0.0
 70
8
  0
VERTEX
  5
BD
330
17
100
AcDbEntity
  8
INTERSECTIONS
100
AcDbVertex
100
AcDb3dPolylineVertex
 10
1245.246826171875
 20
39.08620834350586
 30
249.77224731445312
 70
32
  0
VERTEX
  5
BE
330
17
100
AcDbEntity
  8
INTERSECTIONS
100
AcDbVertex
100
AcDb3dPolylineVertex
 10
1200.1842041015625
 20
71.36935424804688
 30
239.4832763671875
 70
32
  0
SEQEND
  5
BC
330
BB
100
AcDbEntity
  8
INTERSECTIONS
  0
POLYLINE
  5
BF
330
17
100
AcDbEntity
  8
FINAL_contorno2
100
AcDb3dPolyline
 66
1
 10
0.0
 20
0.0
 30
0.0
 70
8
  0
VERTEX
  5
C1
330
17
100
AcDbEntity
  8
FINAL_contorno2
100
AcDbVertex
100
AcDb3dPolylineVertex
 10
1464.703990590243
 20
432.909570095289
 30
0.0
 70
32
  0
VERTEX
  5
C2
330
17
100
AcDbEntity
  8
FINAL_contorno2
100
AcDbVertex
100
AcDb3dPolylineVertex
 10
1465.332797250371
 20
-227.090130360843
 30
0.0
 70
32
  0
VERTEX
  5
C3
330
17
100
AcDbEntity
  8
FINAL_contorno2
100
AcDbVertex
100
AcDb3dPolylineVertex
 10
795.245131158669
 20
-56.12069759105002
 30
0.0
 70
32
  0
VERTEX
  5
C4
330
17
100
AcDbEntity
  8
FINAL_contorno2
100
AcDbVertex
100
AcDb3dPolylineVertex
 10
865.0182892298798
 20
244.2417957233477
 30
0.0
 70
32
  0
VERTEX
  5
C5
330
17
100
AcDbEntity
  8
FINAL_contorno2
100
AcDbVertex
100
AcDb3dPolylineVertex
 10
801.587890625
 20
188.6890869140625
 30
0.0
 70
32
  0
VERTEX
  5
C6
330
17
100
AcDbEntity
  8
FINAL_contorno2
100
AcDbVertex
100
AcDb3dPolylineVertex
 10
584.3090805300152
 20
-2.3014456459680543
 30
0.0
 70
32
  0
VERTEX
  5
C7
330
17
100
AcDbEntity
  8
FINAL_contorno2
100
AcDbVertex
100
AcDb3dPolylineVertex
 10
489.2124454927479
 20
21.961973266763597
 30
0.0
 70
32
  0
VERTEX
  5
C8
330
17
100
AcDbEntity
  8
FINAL_contorno2
100
AcDbVertex
100
AcDb3dPolylineVertex
 10
152.0
 20
108.0
 30
0.0
 70
32
  0
VERTEX
  5
C9
330
17
100
AcDbEntity
  8
FINAL_contorno2
100
AcDbVertex
100
AcDb3dPolylineVertex
 10
151.963484355948
 20
163.999988094711
 30
0.0
 70
32
  0
VERTEX
  5
CA
330
17
100
AcDbEntity
  8
FINAL_contorno2
100
AcDbVertex
100
AcDb3dPolylineVertex
 10
424.811437236642
 20
219.89178743389104
 30
0.0
 70
32
  0
VERTEX
  5
CB
330
17
100
AcDbEntity
  8
FINAL_contorno2
100
AcDbVertex
100
AcDb3dPolylineVertex
 10
881.0730773781588
 20
313.3551386070097
 30
0.0
 70
32
  0
VERTEX
  5
CC
330
17
100
AcDbEntity
  8
FINAL_contorno2
100
AcDbVertex
100
AcDb3dPolylineVertex
 10
1464.703990590243
 20
432.909570095289
 30
0.0
 70
32
  0
SEQEND
  5
C0
330
BF
100
AcDbEntity
  8
FINAL_contorno2
  0
POLYLINE
  5
CD
330
17
100
AcDbEntity
  8
FINAL_contorno2_HOLE
100
AcDb3dPolyline
 66
1
 10
0.0
 20
0.0
 30
0.0
 70
8
  0
VERTEX
  5
CF
330
17
100
AcDbEntity
  8
FINAL_contorno2_HOLE
100
AcDbVertex
100
AcDb3dPolylineVertex
 10
1406.519108990861
 20
169.160806834184
 30
0.0
 70
32
  0
VERTEX
  5
D0
330
17
100
AcDbEntity
  8
FINAL_contorno2_HOLE
100
AcDbVertex
100
AcDb3dPolylineVertex
 10
1314.971757891064
 20
255.71964284372
 30
0.0
 70
32
  0
VERTEX
  5
D1
330
17
100
AcDbEntity
  8
FINAL_contorno2_HOLE
100
AcDbVertex
100
AcDb3dPolylineVertex
 10
1170.198965463551
 20
234.17139796782
 30
0.0
 70
32
  0
VERTEX
  5
D2
330
17
100
AcDbEntity
  8
FINAL_contorno2_HOLE
100
AcDbVertex
100
AcDb3dPolylineVertex
 10
1126.382170755475
 20
144.282085469001
 30
0.0
 70
32
  0
VERTEX
  5
D3
330
17
100
AcDbEntity
  8
FINAL_contorno2_HOLE
100
AcDbVertex
100
AcDb3dPolylineVertex
 10
1165.454026402438
 20
41.455094380558
 30
0.0
 70
32
  0
VERTEX
  5
D4
330
17
100
AcDbEntity
  8
FINAL_contorno2_HOLE
100
AcDbVertex
100
AcDb3dPolylineVertex
 10
1241.185024292013
 20
-7.174279033556
 30
0.0
 70
32
  0
VERTEX
  5
D5
330
17
100
AcDbEntity
  8
FINAL_contorno2_HOLE
100
AcDbVertex
100
AcDb3dPolylineVertex
 10
1344.250109491018
 20
47.124307437336
 30
0.0
 70
32
  0
VERTEX
  5
D6
330
17
100
AcDbEntity
  8
FINAL_contorno2_HOLE
100
AcDbVertex
100
AcDb3dPolylineVertex
 10
1406.519108990861
 20
169.160806834184
 30
0.0
 70
32
  0
SEQEND
  5
CE
330
CD
100
AcDbEntity
  8
FINAL_contorno2_HOLE
  0
POLYLINE
  5
D7
330
17
100
AcDbEntity
  8
FINAL_contorno1
100
AcDb3dPolyline
 66
1
 10
0.0
 20
0.0
 30
0.0
 70
8
  0
VERTEX
  5
D9
330
17
100
AcDbEntity
  8
FINAL_contorno1
100
AcDbVertex
100
AcDb3dPolylineVertex
 10
719.999992313189
 20
-380.039209210517
 30
0.0
 70
32
  0
VERTEX
  5
DA
330
17
100
AcDbEntity
  8
FINAL_contorno1
100
AcDbVertex
100
AcDb3dPolylineVertex
 10
620.0
 20
-380.0
 30
0.0
 70
32
  0
VERTEX
  5
DB
330
17
100
AcDbEntity
  8
FINAL_contorno1
100
AcDbVertex
100
AcDb3dPolylineVertex
 10
489.2124454927479
 20
21.961973266763597
 30
0.0
 70
32
  0
VERTEX
  5
DC
330
17
100
AcDbEntity
  8
FINAL_contorno1
100
AcDbVertex
100
AcDb3dPolylineVertex
 10
584.3090805300152
 20
-2.3014456459680543
 30
0.0
 70
32
  0
VERTEX
  5
DD
330
17
100
AcDbEntity
  8
FINAL_contorno1
100
AcDbVertex
100
AcDb3dPolylineVertex
 10
801.587890625
 20
188.6890869140625
 30
0.0
 70
32
  0
VERTEX
  5
DE
330
17
100
AcDbEntity
  8
FINAL_contorno1
100
AcDbVertex
100
AcDb3dPolylineVertex
 10
865.0182892298798
 20
244.2417957233477
 30
0.0
 70
32
  0
VERTEX
  5
DF
330
17
100
AcDbEntity
  8
FINAL_contorno1
100
AcDbVertex
100
AcDb3dPolylineVertex
 10
795.245131158669
 20
-56.12069759105002
 30
0.0
 70
32
  0
VERTEX
  5
E0
330
17
100
AcDbEntity
  8
FINAL_contorno1
100
AcDbVertex
100
AcDb3dPolylineVertex
 10
719.999992313189
 20
-380.039209210517
 30
0.0
 70
32
  0
SEQEND
  5
D8
330
D7
100
AcDbEntity
  8
FINAL_contorno1
  0
POLYLINE
  5
E1
330
17
100
AcDbEntity
  8
FINAL_contorno1
100
AcDb3dPolyline
 66
1
 10
0.0
 20
0.0
 30
0.0
 70
8
  0
VERTEX
  5
E3
330
17
100
AcDbEntity
  8
FINAL_contorno1
100
AcDbVertex
100
AcDb3dPolylineVertex
 10
247.006700673462
 20
766.356189451209
 30
0.0
 70
32
  0
VERTEX
  5
E4
330
17
100
AcDbEntity
  8
FINAL_contorno1
100
AcDbVertex
100
AcDb3dPolylineVertex
 10
987.000618009331
 20
769.356573745846
 30
0.0
 70
32
  0
VERTEX
  5
E5
330
17
100
AcDbEntity
  8
FINAL_contorno1
100
AcDbVertex
100
AcDb3dPolylineVertex
 10
881.0730773781588
 20
313.3551386070097
 30
0.0
 70
32
  0
VERTEX
  5
E6
330
17
100
AcDbEntity
  8
FINAL_contorno1
100
AcDbVertex
100
AcDb3dPolylineVertex
 10
424.811437236642
 20
219.89178743389104
 30
0.0
 70
32
  0
VERTEX
  5
E7
330
17
100
AcDbEntity
  8
FINAL_contorno1
100
AcDbVertex
100
AcDb3dPolylineVertex
 10
247.006700673462
 20
766.356189451209
 30
0.0
 70
32
  0
SEQEND
  5
E2
330
E1
100
AcDbEntity
  8
FINAL_contorno1
  0
POLYLINE
  5
E8
330
17
100
AcDbEntity
  8
FINAL_contorno3
100
AcDb3dPolyline
 66
1
 10
0.0
 20
0.0
 30
0.0
 70
8
  0
VERTEX
  5
EA
330
17
100
AcDbEntity
  8
FINAL_contorno3
100
AcDbVertex
100
AcDb3dPolylineVertex
 10
1241.185024292013
 20
-7.174279033556
 30
0.0
 70
32
  0
VERTEX
  5
EB
330
17
100
AcDbEntity
  8
FINAL_contorno3
100
AcDbVertex
100
AcDb3dPolylineVertex
 10
1165.454026402438
 20
41.455094380558
 30
0.0
 70
32
  0
VERTEX
  5
EC
330
17
100
AcDbEntity
  8
FINAL_contorno3
100
AcDbVertex
100
AcDb3dPolylineVertex
 10
1126.382170755475
 20
144.282085469001
 30
0.0
 70
32
  0
VERTEX
  5
ED
330
17
100
AcDbEntity
  8
FINAL_contorno3
100
AcDbVertex
100
AcDb3dPolylineVertex
 10
1170.198965463551
 20
234.17139796782
 30
0.0
 70
32
  0
VERTEX
  5
EE
330
17
100
AcDbEntity
  8
FINAL_contorno3
100
AcDbVertex
100
AcDb3dPolylineVertex
 10
1314.971757891064
 20
255.71964284372
 30
0.0
 70
32
  0
VERTEX
  5
EF
330
17
100
AcDbEntity
  8
FINAL_contorno3
100
AcDbVertex
100
AcDb3dPolylineVertex
 10
1406.519108990861
 20
169.160806834184
 30
0.0
 70
32
  0
VERTEX
  5
F0
330
17
100
AcDbEntity
  8
FINAL_contorno3
100
AcDbVertex
100
AcDb3dPolylineVertex
 10
1344.250109491018
 20
47.124307437336
 30
0.0
 70
32
  0
VERTEX
  5
F1
330
17
100
AcDbEntity
  8
FINAL_contorno3
100
AcDbVertex
100
AcDb3dPolylineVertex
 10
1241.185024292013
 20
-7.174279033556
 30
0.0
 70
32
  0
SEQEND
  5
E9
330
E8
100
AcDbEntity
  8
FINAL_contorno3
  0
ENDSEC
  0
SECTION
  2
OBJECTS
  0
DICTIONARY
  5
A
330
0
100
AcDbDictionary
280
0
281
1
  3
ACAD_COLOR
350
B
  3
ACAD_GROUP
350
C
  3
ACAD_LAYOUT
350
D
  3
ACAD_MATERIAL
350
E
  3
ACAD_MLEADERSTYLE
350
F
  3
ACAD_MLINESTYLE
350
10
  3
ACAD_PLOTSETTINGS
350
11
  3
ACAD_PLOTSTYLENAME
350
12
  3
ACAD_SCALELIST
350
14
  3
ACAD_TABLESTYLE
350
15
  3
ACAD_VISUALSTYLE
350
16
  3
EZDXF_META
350
2D
  0
DICTIONARY
  5
B
330
A
100
AcDbDictionary
280
0
281
1
  0
DICTIONARY
  5
C
330
A
100
AcDbDictionary
280
0
281
1
  0
DICTIONARY
  5
D
330
A
100
AcDbDictionary
280
0
281
1
  3
Model
350
1A
  3
Layout1
350
1E
  0
DICTIONARY
  5
E
330
A
100
AcDbDictionary
280
0
281
1
  3
ByBlock
350
1F
  3
ByLayer
350
20
  3
Global
350
21
  0
DICTIONARY
  5
F
330
A
100
AcDbDictionary
280
0
281
1
  3
Standard
350
2C
  0
DICTIONARY
  5
10
330
A
100
AcDbDictionary
280
0
281
1
  3
Standard
350
22
  0
DICTIONARY
  5
11
330
A
100
AcDbDictionary
280
0
281
1
  0
ACDBDICTIONARYWDFLT
  5
12
330
A
100
AcDbDictionary
280
0
281
1
  3
Normal
350
13
100
AcDbDictionaryWithDefault
340
13
  0
ACDBPLACEHOLDER
  5
13
330
12
  0
DICTIONARY
  5
14
330
A
100
AcDbDictionary
280
0
281
1
  0
DICTIONARY
  5
15
330
A
100
AcDbDictionary
280
0
281
1
  0
DICTIONARY
  5
16
330
A
100
AcDbDictionary
280
0
281
1
  0
LAYOUT
  5
1A
330
D
100
AcDbPlotSettings
  1

  4
A3
  6

 40
7.5
 41
20.0
 42
7.5
 43
20.0
 44
420.0
 45
297.0
 46
0.0
 47
0.0
 48
0.0
 49
0.0
140
0.0
141
0.0
142
1.0
143
1.0
 70
1024
 72
1
 73
0
 74
5
  7

 75
16
 76
0
 77
2
 78
300
147
1.0
148
0.0
149
0.0
100
AcDbLayout
  1
Model
 70
1
 71
0
 10
0.0
 20
0.0
 11
420.0
 21
297.0
 12
0.0
 22
0.0
 32
0.0
 14
1e+20
 24
1e+20
 34
1e+20
 15
-1e+20
 25
-1e+20
 35
-1e+20
146
0.0
 13
0.0
 23
0.0
 33
0.0
 16
1.0
 26
0.0
 36
0.0
 17
0.0
 27
1.0
 37
0.0
 76
1
330
17
  0
LAYOUT
  5
1E
330
D
100
AcDbPlotSettings
  1

  4
A3
  6

 40
7.5
 41
20.0
 42
7.5
 43
20.0
 44
420.0
 45
297.0
 46
0.0
 47
0.0
 48
0.0
 49
0.0
140
0.0
141
0.0
142
1.0
143
1.0
 70
0
 72
1
 73
0
 74
5
  7

 75
16
 76
0
 77
2
 78
300
147
1.0
148
0.0
149
0.0
100
AcDbLayout
  1
Layout1
 70
1
 71
1
 10
0.0
 20
0.0
 11
420.0
 21
297.0
 12
0.0
 22
0.0
 32
0.0
 14
1e+20
 24
1e+20
 34
1e+20
 15
-1e+20
 25
-1e+20
 35
-1e+20
146
0.0
 13
0.0
 23
0.0
 33
0.0
 16
1.0
 26
0.0
 36
0.0
 17
0.0
 27
1.0
 37
0.0
 76
1
330
1B
  0
MATERIAL
  5
1F
102
{ACAD_REACTORS
330
E
102
}
330
E
100
AcDbMaterial
  1
ByBlock
  2

 70
0
 40
1.0
 71
1
 41
1.0
 91
-1023410177
 42
1.0
 72
1
  3

 73
1
 74
1
 75
1
 44
0.5
 73
0
 45
1.0
 46
1.0
 77
1
  4

 78
1
 79
1
170
1
 48
1.0
171
1
  6

172
1
173
1
174
1
140
1.0
141
1.0
175
1
  7

176
1
177
1
178
1
143
1.0
179
1
  8

270
1
271
1
272
1
145
1.0
146
1.0
273
1
  9

274
1
275
1
276
1
 42
1.0
 72
1
  3

 73
1
 74
1
 75
1
 94
63
  0
MATERIAL
  5
20
102
{ACAD_REACTORS
330
E
102
}
330
E
100
AcDbMaterial
  1
ByLayer
  2

 70
0
 40
1.0
 71
1
 41
1.0
 91
-1023410177
 42
1.0
 72
1
  3

 73
1
 74
1
 75
1
 44
0.5
 73
0
 45
1.0
 46
1.0
 77
1
  4

 78
1
 79
1
170
1
 48
1.0
171
1
  6

172
1
173
1
174
1
140
1.0
141
1.0
175
1
  7

176
1
177
1
178
1
143
1.0
179
1
  8

270
1
271
1
272
1
145
1.0
146
1.0
273
1
  9

274
1
275
1
276
1
 42
1.0
 72
1
  3

 73
1
 74
1
 75
1
 94
63
  0
MATERIAL
  5
21
102
{ACAD_REACTORS
330
E
102
}
330
E
100
AcDbMaterial
  1
Global
  2

 70
0
 40
1.0
 71
1
 41
1.0
 91
-1023410177
 42
1.0
 72
1
  3

 73
1
 74
1
 75
1
 44
0.5
 73
0
 45
1.0
 46
1.0
 77
1
  4

 78
1
 79
1
170
1
 48
1.0
171
1
  6

172
1
173
1
174
1
140
1.0
141
1.0
175
1
  7

176
1
177
1
178
1
143
1.0
179
1
  8

270
1
271
1
272
1
145
1.0
146
1.0
273
1
  9

274
1
275
1
276
1
 42
1.0
 72
1
  3

 73
1
 74
1
 75
1
 94
63
  0
MLINESTYLE
  5
22
102
{ACAD_REACTORS
330
10
102
}
330
10
100
AcDbMlineStyle
  2
Standard
 70
0
  3

 62
256
 51
90.0
 52
90.0
 71
2
 49
0.5
 62
256
  6
BYLAYER
 49
-0.5
 62
256
  6
BYLAYER
  0
MLEADERSTYLE
  5
2C
102
{ACAD_REACTORS
330
F
102
}
330
F
100
AcDbMLeaderStyle
179
2
170
2
171
1
172
0
 90
2
 40
0.0
 41
0.0
173
1
 91
-1056964608
 92
-2
290
1
 42
2.0
291
1
 43
8.0
  3
Standard
 44
4.0
300

342
29
174
1
175
1
176
0
178
1
 93
-1056964608
 45
4.0
292
0
297
0
 46
4.0
 94
-1056964608
 47
1.0
 49
1.0
140
1.0
294
1
141
0.0
177
0
142
1.0
295
0
296
0
143
3.75
271
0
272
9
273
9
  0
DICTIONARY
  5
2D
330
A
100
AcDbDictionary
280
1
281
1
  3
CREATED_BY_EZDXF
350
2E
  3
WRITTEN_BY_EZDXF
350
F4
  0
DICTIONARYVAR
  5
2E
330
2D
100
DictionaryVariables
280
0
  1
1.3.5 @ 2025-01-21T12:29:46.617170+00:00
  0
DICTIONARYVAR
  5
F4
330
2D
100
DictionaryVariables
280
0
  1
1.3.5 @ 2025-01-21T12:29:46.638694+00:00
  0
ENDSEC
  0
EOF
